<svg width="35" height="18" viewBox="0 0 35 18" fill="none" xmlns="http://www.w3.org/2000/svg">
<g clip-path="url(#clip0_329_413)">
<path d="M28.6778 0.932217H23.172C22.2598 0.932217 21.5203 1.67172 21.5203 2.58394V15.7977C21.5203 16.7099 22.2598 17.4494 23.172 17.4494H28.6778C29.59 17.4494 30.3295 16.7099 30.3295 15.7977V2.58394C30.3295 1.67172 29.59 0.932217 28.6778 0.932217Z" stroke="#0063BA" stroke-linecap="round" stroke-linejoin="round"/>
<path d="M23.172 0.932217H23.9979C24.0709 0.932217 24.1409 0.96122 24.1925 1.01285C24.2442 1.06447 24.2732 1.13449 24.2732 1.2075C24.2732 1.35352 24.3312 1.49357 24.4344 1.59682C24.5377 1.70007 24.6777 1.75808 24.8237 1.75808H27.026C27.172 1.75808 27.3121 1.70007 27.4153 1.59682C27.5186 1.49357 27.5766 1.35352 27.5766 1.2075C27.5766 1.13449 27.6056 1.06447 27.6572 1.01285C27.7089 0.96122 27.7789 0.932217 27.8519 0.932217H28.6777" stroke="#0063BA" stroke-width="0.625" stroke-linecap="round" stroke-linejoin="round"/>
</g>
<g clip-path="url(#clip1_329_413)">
<path d="M11.562 3.85402H6.05631C4.84002 3.85402 3.85402 4.84002 3.85402 6.05631V11.562C3.85402 12.7783 4.84002 13.7643 6.05631 13.7643H11.562C12.7783 13.7643 13.7643 12.7783 13.7643 11.562V6.05631C13.7643 4.84002 12.7783 3.85402 11.562 3.85402Z" stroke="#0063BA" stroke-linejoin="round"/>
<path d="M6.05631 3.85401V1.37643C6.05631 1.30342 6.08532 1.2334 6.13694 1.18178C6.18857 1.13015 6.25859 1.10115 6.3316 1.10115H11.2868C11.3598 1.10115 11.4298 1.13015 11.4814 1.18178C11.533 1.2334 11.562 1.30342 11.562 1.37643V3.85401M11.562 13.7643V16.2419C11.562 16.3149 11.533 16.385 11.4814 16.4366C11.4298 16.4882 11.3598 16.5172 11.2868 16.5172H6.3316C6.25859 16.5172 6.18857 16.4882 6.13694 16.4366C6.08532 16.385 6.05631 16.3149 6.05631 16.2419V13.7643" stroke="#0063BA" stroke-linejoin="round"/>
</g>
<defs>
<clipPath id="clip0_329_413">
<rect width="17.6184" height="17.6184" fill="white" transform="translate(17.1157 0.381643)"/>
</clipPath>
<clipPath id="clip1_329_413">
<rect width="17.6184" height="17.6184" fill="white"/>
</clipPath>
</defs>
</svg>
