<svg width="40" height="40" viewBox="0 0 40 40" fill="none" xmlns="http://www.w3.org/2000/svg">
<g clip-path="url(#clip0_329_344)">
<path d="M33.3336 24.4445C33.3336 30.5779 25.8669 35.5556 16.6669 35.5556C16.0436 35.5593 15.4205 35.5296 14.8003 35.4668C14.2447 35.4445 13.6892 35.3779 13.1558 35.3112L12.4225 35.1779L8.24472 39.3556C7.82439 39.7702 7.25729 40.0018 6.66695 40.0001C6.08026 39.9915 5.52001 39.7546 5.10512 39.3397C4.69022 38.9248 4.45333 38.3645 4.44472 37.7779L4.4225 31.9779C3.82364 31.557 3.26564 31.0809 2.75583 30.5556C1.3577 29.2241 0.423107 27.4795 0.0891675 25.5779C0.0265071 25.2034 -0.0032362 24.8242 0.000278648 24.4445V24.3779C0.0447231 18.7112 6.44472 14.0667 14.6892 13.4223H14.7114C15.3613 13.359 16.014 13.3293 16.6669 13.3334C25.8669 13.3334 33.3336 18.3112 33.3336 24.4445ZM40.0003 5.55564C39.9481 6.27581 39.7177 6.97171 39.3298 7.58072C38.9419 8.18973 38.4086 8.69275 37.7781 9.04453V12.2223C37.7754 12.4299 37.7161 12.6328 37.6064 12.8091C37.4967 12.9853 37.3409 13.1283 37.1558 13.2223C37.0024 13.293 36.8359 13.3309 36.6669 13.3334C36.4258 13.3382 36.1903 13.2597 36.0003 13.1112L33.0669 10.8445H33.0447C32.0401 11.0252 31.0211 11.1145 30.0003 11.1112C24.4669 11.1112 20.0003 8.6223 20.0003 5.55564C20.0003 3.28897 22.4225 1.35564 25.9114 0.488971C27.2493 0.159962 28.6225 -0.00421871 30.0003 8.23568e-05C35.1781 8.23568e-05 39.4447 2.17786 39.9558 4.97786C39.9817 5.16944 39.9965 5.36235 40.0003 5.55564Z" fill="white"/>
</g>
<defs>
<clipPath id="clip0_329_344">
<rect width="40" height="40" fill="white"/>
</clipPath>
</defs>
</svg>
