<svg width="32" height="32" viewBox="0 0 32 32" fill="none" xmlns="http://www.w3.org/2000/svg">
<path d="M16.0003 29.3333C23.3641 29.3333 29.3337 23.3638 29.3337 16C29.3337 8.63619 23.3641 2.66666 16.0003 2.66666C8.63653 2.66666 2.66699 8.63619 2.66699 16C2.66699 23.3638 8.63653 29.3333 16.0003 29.3333Z" fill="#FF0000"/>
<path fill-rule="evenodd" clip-rule="evenodd" d="M23.5343 10.9187C23.8004 11.1848 23.9921 11.5159 24.0904 11.8791C24.6563 14.1571 24.5255 17.7549 24.1014 20.1209C24.0031 20.4841 23.8114 20.8152 23.5453 21.0813C23.2793 21.3473 22.9481 21.5391 22.5849 21.6373C21.2553 22 15.9036 22 15.9036 22C15.9036 22 10.5519 22 9.22226 21.6373C8.85906 21.5391 8.52792 21.3473 8.26186 21.0813C7.99579 20.8152 7.80406 20.4841 7.70579 20.1209C7.13652 17.8527 7.29259 14.2527 7.69479 11.8901C7.79306 11.5269 7.98479 11.1957 8.25086 10.9297C8.51692 10.6636 8.84806 10.4719 9.21126 10.3736C10.5409 10.011 15.8926 10 15.8926 10C15.8926 10 21.2443 10 22.5739 10.3627C22.9371 10.4609 23.2683 10.6527 23.5343 10.9187ZM18.6289 16L14.1893 18.5714V13.4285L18.6289 16Z" fill="white"/>
</svg>
